<?xml version="1.0" standalone="no"?>
<!DOCTYPE svg PUBLIC "-//W3C//DTD SVG 20010904//EN"
 "http://www.w3.org/TR/2001/REC-SVG-20010904/DTD/svg10.dtd">
<svg version="1.0" xmlns="http://www.w3.org/2000/svg"
 width="441.000000pt" height="151.000000pt" viewBox="0 0 441.000000 151.000000"
 preserveAspectRatio="xMidYMid meet">

<g transform="translate(0.000000,151.000000) scale(0.100000,-0.100000)"
fill="#000000" stroke="none">
<path d="M553 1006 c-58 -19 -104 -49 -153 -102 -67 -72 -85 -122 -85 -234 0
-82 4 -103 26 -151 66 -141 234 -229 378 -198 54 11 61 19 36 39 -35 29 -5 82
61 110 l44 19 0 111 0 110 -70 0 -70 0 0 76 0 77 -76 -7 c-87 -8 -118 -24
-133 -68 -13 -38 -15 -288 -2 -288 5 0 11 63 13 139 3 132 4 141 27 165 21 23
33 26 88 26 l63 0 0 -70 0 -69 68 -3 67 -3 0 -90 0 -90 -36 -17 c-52 -24 -82
-65 -77 -105 l4 -33 -63 0 c-124 0 -233 66 -288 176 -26 52 -30 70 -30 144 0
73 4 92 28 137 50 96 121 150 235 177 31 8 49 15 40 15 -10 1 -18 6 -18 11 0
13 -25 12 -77 -4z"/>
<path d="M795 981 c22 -10 49 -26 60 -34 18 -14 19 -16 3 -34 -16 -18 -23 -77
-7 -67 5 3 9 12 9 21 0 9 10 27 21 40 19 19 20 25 8 39 -17 21 -87 54 -114 54
-13 0 -6 -7 20 -19z"/>
<path d="M1620 911 c-141 -43 -224 -198 -175 -327 46 -121 169 -183 307 -155
57 12 128 60 128 88 0 10 -11 6 -36 -17 -45 -39 -73 -50 -132 -50 -99 0 -152
70 -155 203 -3 100 8 142 50 188 39 43 92 63 141 53 42 -8 98 -58 113 -99 7
-19 15 -35 19 -35 3 0 5 36 5 79 0 78 0 79 -19 60 -11 -13 -24 -18 -35 -13
-77 32 -156 41 -211 25z"/>
<path d="M2908 900 c22 -9 22 -11 22 -224 0 -211 0 -215 -22 -230 -21 -15 -17
-16 67 -16 74 0 86 2 71 13 -14 10 -17 25 -14 71 2 33 8 61 14 63 12 4 84 -99
84 -121 0 -8 -6 -17 -12 -19 -7 -3 27 -6 77 -6 81 -1 88 0 69 14 -12 8 -49 55
-84 106 l-62 91 38 40 c22 22 53 49 69 59 l30 19 -75 0 c-70 0 -73 -1 -52 -16
12 -8 22 -21 22 -28 0 -7 -26 -37 -57 -67 l-58 -54 -3 158 -3 157 -72 -1 c-53
0 -66 -3 -49 -9z"/>
<path d="M2375 841 c-16 -24 -46 -58 -67 -76 -35 -29 -37 -33 -18 -38 19 -5
20 -13 20 -119 0 -123 9 -153 51 -177 33 -18 73 -8 105 26 27 30 26 40 -4 22
-11 -7 -27 -9 -36 -6 -14 6 -16 22 -14 129 l3 123 38 3 c53 5 51 32 -3 32
l-39 0 -3 62 -3 62 -30 -43z"/>
<path d="M925 850 c-11 -5 -32 -11 -47 -14 -40 -9 -34 -21 9 -20 26 1 41 7 51
23 16 23 16 23 -13 11z"/>
<path d="M769 801 c23 -32 71 -67 71 -52 0 12 -70 81 -82 81 -5 0 0 -13 11
-29z"/>
<path d="M2050 748 c-81 -41 -113 -151 -71 -244 10 -23 29 -49 42 -58 58 -40
142 -27 184 28 32 42 32 53 -1 27 -40 -31 -87 -28 -118 10 -14 17 -26 36 -26
42 0 7 -3 22 -6 35 -6 22 -5 22 85 22 l91 0 0 26 c0 36 -27 90 -54 107 -41 28
-78 29 -126 5z m84 -20 c9 -12 16 -39 16 -60 l0 -38 -50 0 -50 0 0 34 c0 36
32 86 55 86 8 0 21 -10 29 -22z"/>
<path d="M2645 761 c-44 -11 -73 -29 -91 -56 -28 -43 6 -86 55 -70 28 9 34 34
15 63 -16 24 -16 26 2 39 44 32 84 3 84 -60 0 -41 -1 -42 -64 -75 -107 -56
-139 -110 -92 -156 31 -32 51 -32 108 -2 l44 23 22 -24 c18 -21 29 -24 54 -19
47 9 81 46 43 46 -12 0 -15 16 -16 78 -1 127 -11 172 -39 193 -30 22 -84 30
-125 20z m63 -213 l-3 -63 -35 0 c-32 0 -35 3 -38 31 -2 24 4 38 29 62 18 18
37 32 41 32 5 0 8 -28 6 -62z"/>
<path d="M3510 763 c-8 -3 -27 -15 -42 -25 -28 -19 -28 -19 -28 1 0 19 -6 21
-72 20 -69 0 -72 -1 -50 -16 21 -15 22 -22 22 -149 0 -126 -1 -134 -22 -148
-21 -15 -17 -16 67 -16 66 1 85 3 73 11 -16 9 -18 26 -18 124 0 102 2 117 20
135 51 51 70 15 70 -129 0 -102 -2 -111 -22 -125 -21 -15 -17 -16 67 -16 79 0
87 2 69 14 -17 13 -20 31 -24 145 -4 113 -8 133 -25 150 -22 22 -62 33 -85 24z"/>
<path d="M3829 761 c-73 -23 -114 -87 -114 -176 1 -97 59 -159 149 -159 59 -1
92 16 130 68 30 40 30 162 0 203 -38 51 -112 80 -165 64z m75 -33 c25 -35 23
-238 -2 -268 -30 -37 -68 -21 -83 33 -16 60 -5 213 17 238 23 25 49 24 68 -3z"/>
<path d="M993 672 c-3 -73 -24 -141 -51 -164 -9 -9 -39 -23 -66 -31 -61 -21
-116 -62 -116 -87 0 -11 10 -26 23 -35 37 -24 87 -4 145 60 63 68 86 133 85
233 -1 94 -17 113 -20 24z m-120 -279 c-7 -3 -13 -11 -13 -19 0 -16 -36 -19
-46 -3 -3 6 -1 16 5 22 8 8 11 7 11 -2 0 -11 5 -10 23 2 12 8 24 12 27 10 3
-3 -1 -8 -7 -10z"/>
<path d="M623 625 c2 -5 30 -10 62 -10 32 0 60 5 62 10 2 6 -23 10 -62 10 -39
0 -64 -4 -62 -10z"/>
<path d="M622 575 c3 -17 11 -20 63 -20 52 0 60 3 63 20 3 16 1 18 -9 8 -7 -7
-31 -13 -54 -13 -23 0 -47 6 -54 13 -10 10 -12 8 -9 -8z"/>
<path d="M620 517 c0 -14 10 -17 65 -17 55 0 65 3 65 17 0 13 -3 14 -12 5 -7
-7 -30 -12 -53 -12 -23 0 -46 5 -53 12 -9 9 -12 8 -12 -5z"/>
</g>
</svg>
