<?xml version="1.0" standalone="no"?>
<!DOCTYPE svg PUBLIC "-//W3C//DTD SVG 20010904//EN"
 "http://www.w3.org/TR/2001/REC-SVG-20010904/DTD/svg10.dtd">
<svg version="1.0" xmlns="http://www.w3.org/2000/svg"
 width="3509.000000pt" height="2322.000000pt" viewBox="0 0 3509.000000 2322.000000"
 preserveAspectRatio="xMidYMid meet">

<g transform="translate(0.000000,2322.000000) scale(0.100000,-0.100000)"
fill="#000000" stroke="none">
<path d="M16735 20169 c-304 -20 -670 -66 -990 -125 -2552 -467 -4664 -1959
-5900 -4169 -792 -1416 -1192 -3208 -1069 -4795 126 -1646 716 -3227 1679
-4505 1096 -1453 2599 -2476 4425 -3010 1009 -295 2170 -428 3020 -345 561 55
1185 196 1743 394 209 75 250 93 241 108 -27 45 -489 607 -497 605 -16 -3
-111 172 -157 290 -106 270 -124 524 -55 787 172 658 908 1284 1915 1630 222
77 337 109 585 165 l210 47 6 184 c34 966 49 2125 49 3828 l0 1442 -1640 0
-1640 0 2 1734 3 1733 -155 7 c-415 17 -2130 -5 -2610 -34 -945 -57 -1614
-411 -2069 -1096 -276 -415 -388 -822 -431 -1569 -25 -444 -41 -752 -52 -1030
-16 -424 -14 -1854 6 -2820 9 -445 16 -1083 16 -1416 l0 -606 38 -7 c20 -3
142 -6 271 -6 l234 0 -6 943 c-4 518 -11 1149 -18 1402 -15 625 -16 2114 -1
2485 18 442 50 1032 67 1235 35 416 97 665 231 925 143 277 366 525 624 692
312 203 701 311 1195 333 296 13 1378 35 1733 35 l382 0 2 -1558 3 -1559 42
-85 c70 -141 198 -240 347 -267 41 -8 499 -11 1467 -11 l1408 0 7 -47 c4 -26
4 -753 1 -1617 -5 -1416 -13 -2000 -33 -2612 l-6 -201 -122 -33 c-372 -101
-829 -289 -1161 -478 -131 -74 -382 -242 -505 -338 -138 -107 -363 -324 -472
-454 -537 -639 -650 -1386 -317 -2089 33 -68 58 -126 56 -128 -18 -17 -493
-103 -707 -127 -344 -39 -812 -45 -1290 -16 -1584 96 -3038 619 -4241 1526
-591 445 -1119 987 -1559 1599 -717 995 -1231 2254 -1444 3530 -63 375 -69
441 -74 805 -2 197 1 420 7 520 62 966 272 1861 642 2735 82 196 311 650 423
840 512 871 1194 1633 2006 2240 991 741 2234 1263 3550 1489 349 61 692 99
1013 114 l149 7 -64 46 c-277 203 -633 304 -953 271 -60 -6 -111 -9 -113 -7
-10 10 262 176 392 240 172 85 276 123 461 171 l130 33 -155 -1 c-85 0 -209
-5 -275 -9z"/>
<path d="M19005 19752 l-70 -3 210 -66 c554 -172 983 -347 1510 -617 559 -286
1151 -660 1656 -1044 l87 -67 -51 -45 c-311 -270 -877 -787 -877 -800 0 -4 14
-34 30 -66 92 -179 135 -592 95 -898 -31 -235 -119 -502 -235 -709 -31 -56
-56 -104 -54 -106 6 -7 118 99 187 177 38 42 102 128 143 190 74 110 93 129
965 963 489 468 889 852 889 855 0 2 -82 -65 -182 -149 -839 -706 -1451 -1217
-1453 -1215 -2 2 8 45 21 95 42 167 55 300 53 528 l-3 209 160 120 c223 167
463 353 792 615 l283 224 -28 28 c-284 274 -581 511 -933 744 -827 547 -1718
899 -2550 1006 -137 17 -502 42 -555 37 -11 -1 -51 -4 -90 -6z"/>
<path d="M23055 16489 c-418 -346 -881 -729 -1030 -851 -148 -123 -305 -257
-348 -298 -84 -80 -194 -216 -184 -227 4 -3 76 13 161 36 554 151 1011 157
1535 20 l155 -40 20 25 c313 369 390 470 540 698 51 79 117 184 145 235 70
124 165 323 158 330 -10 9 -202 -102 -367 -212 -183 -122 -324 -231 -513 -396
l-138 -121 -117 23 c-101 20 -147 23 -332 23 -149 0 -239 -5 -292 -15 -43 -9
-78 -15 -78 -14 0 1 326 319 725 705 646 627 733 712 723 709 -2 0 -345 -284
-763 -630z"/>
<path d="M19241 15725 c80 -177 256 -460 429 -690 532 -708 1304 -1382 1929
-1684 47 -22 86 -39 88 -37 7 6 -51 127 -113 238 -461 828 -1437 1778 -2235
2179 -65 32 -121 59 -123 59 -3 0 9 -29 25 -65z"/>
<path d="M25135 14100 c-3 -5 1 -99 9 -207 26 -323 37 -566 45 -965 45 -2233
-287 -3891 -960 -4796 -96 -128 -329 -360 -449 -444 -136 -96 -326 -188 -505
-243 -291 -90 -682 -218 -860 -282 -1273 -458 -2197 -1012 -2599 -1557 -169
-228 -239 -420 -239 -646 1 -106 5 -139 27 -215 209 -703 819 -968 1723 -750
269 65 571 176 736 271 573 329 1257 912 1771 1510 1353 1574 1977 3554 1821
5774 -56 789 -227 1703 -465 2488 -20 67 -39 88 -55 62z m-2500 -8190 c62 -58
21 -170 -63 -170 -65 0 -101 34 -102 95 0 45 21 82 54 96 31 13 86 3 111 -21z
m-134 -253 c28 -21 39 -54 39 -115 0 -156 -119 -369 -284 -504 -181 -150 -446
-259 -632 -262 -107 -1 -134 13 -134 70 0 43 33 70 206 174 329 197 435 286
588 492 47 64 98 126 112 137 29 23 80 27 105 8z m-1113 -249 c20 -20 14 -55
-29 -187 -87 -265 -60 -405 92 -481 114 -58 220 -82 364 -84 138 -1 198 9 297
50 32 13 69 24 82 24 29 0 56 -33 49 -61 -18 -68 -346 -256 -548 -314 -193
-56 -505 -56 -672 0 -114 38 -146 62 -185 142 l-33 68 1 150 c0 134 4 160 28
240 33 108 77 183 148 251 70 67 101 88 233 156 111 58 151 68 173 46z"/>
<path d="M19035 11144 c-45 -23 -66 -45 -86 -89 -24 -52 -24 -97 1 -168 35
-99 21 -147 -48 -167 -24 -6 -418 -10 -1159 -10 -1096 0 -1123 0 -1142 19 -25
25 -35 94 -22 151 6 25 11 67 11 94 0 100 -77 176 -179 176 -137 0 -197 -84
-208 -295 -6 -119 11 -208 59 -297 41 -76 130 -160 205 -190 l58 -23 1230 0
1230 0 57 23 c133 54 227 142 270 255 29 74 36 231 14 317 -40 157 -99 220
-207 220 -30 0 -67 -7 -84 -16z"/>
<path d="M19038 9740 c-92 -49 -117 -135 -78 -268 20 -70 21 -82 9 -107 -8
-16 -25 -35 -39 -42 -20 -10 -266 -13 -1165 -13 -627 0 -1145 4 -1152 8 -32
20 -41 98 -21 192 6 30 8 72 4 92 -28 150 -222 200 -325 83 -38 -44 -61 -145
-61 -267 0 -211 80 -357 238 -435 l76 -38 1241 0 1242 0 84 42 c144 71 225
174 250 318 21 121 -9 294 -64 376 -50 74 -159 101 -239 59z"/>
<path d="M19032 8359 c-89 -45 -121 -143 -83 -253 33 -94 28 -137 -20 -161
-24 -13 -188 -15 -1178 -15 l-1150 0 -13 23 c-8 14 -11 48 -9 92 9 196 8 209
-23 249 -76 100 -235 98 -302 -3 -58 -88 -70 -315 -24 -449 29 -82 97 -173
162 -216 107 -70 29 -67 1389 -64 l1225 3 76 38 c187 92 267 231 256 446 -6
107 -34 206 -75 260 -52 67 -152 89 -231 50z"/>
</g>
</svg>
