<svg xmlns="http://www.w3.org/2000/svg" width="64" height="64" enable-background="new 0 0 64 64" viewBox="0 0 64 64" id="printing-studio"><polygon fill="#E6E9ED" points="28.17 38.5 9 38.5 9 57.5 9 58.5 9 61.5 28 61.5 28 44.5 36 44.5 36 54.51 36 61.5 55 61.5 55 58.5 55 57.5 55 44.5 55 38.5"></polygon><path fill="#A0D468" d="M59,58.5c0-1.1,0.9-2,2-2s2,0.56,2,2v3h-8v-3v-1c0-1.11,0.89-2,2-2c1.1,0,2,0.89,2,2V58.5z"></path><path fill="#ED5565" d="M52,44.5v7h-1c-0.77,0-1.47-0.29-2-0.77c-0.62-0.54-1-1.341-1-2.23v-4H52z"></path><path fill="#DA4453" d="M52,51.5v3.01h-3V54.5v-3.77c0.53,0.479,1.23,0.77,2,0.77H52z"></path><path fill="#5D9CEC" d="M49,54.5v0.01h-7V54.5v-3.77c0.62-0.54,1-1.341,1-2.23v-4h5v4c0,0.89,0.38,1.69,1,2.23V54.5z"></path><path fill="#ED5565" d="M43,44.5v4c0,0.89-0.38,1.69-1,2.23c-0.53,0.479-1.23,0.77-2,0.77h-1v-7H43z"></path><polygon fill="#AAB2BD" points="41.01 9.5 41.01 19.5 32 26.5 32 16.5"></polygon><polygon fill="#CCD1D9" points="41.01 9.5 32 16.5 23 9.5 32 2.5"></polygon><path fill="#DA4453" d="M42,54.5v0.01h-3V51.5h1c0.77,0,1.47-0.29,2-0.77V54.5z"></path><path fill="#ED5565" d="M25,44.5v7h-1c-0.77,0-1.47-0.29-2-0.77c-0.62-0.54-1-1.341-1-2.23v-4H25z"></path><path fill="#DA4453" d="M25,51.5v3.01h-3V54.5v-3.77c0.53,0.479,1.23,0.77,2,0.77H25z"></path><path fill="#5D9CEC" d="M22,54.5v0.01h-7V54.5v-3.77c0.62-0.54,1-1.341,1-2.23v-4h5v4c0,0.89,0.38,1.69,1,2.23V54.5z"></path><polygon fill="#E6E9ED" points="32 16.5 32 26.5 23 19.5 23 9.5"></polygon><path fill="#ED5565" d="M16,44.5v4c0,0.89-0.38,1.69-1,2.23c-0.53,0.479-1.23,0.77-2,0.77h-1v-7H16z"></path><polygon fill="#ED5565" points="7 35.5 57 35.5 58 38.5 55 38.5 28.17 38.5 9 38.5 5.99 38.5"></polygon><polygon fill="#DA4453" points="8 32.5 56 32.5 57 35.5 7 35.5"></polygon><polygon fill="#ED5565" points="9 29.5 55 29.5 56 32.5 8 32.5"></polygon><path fill="#DA4453" d="M15,54.5v0.01h-3V51.5h1c0.77,0,1.47-0.29,2-0.77V54.5z"></path><polygon fill="#5D9CEC" points="36 44.5 36 54.51 36 61.5 28 61.5 28 44.5"></polygon><path fill="#A0D468" d="M5,58.5v-1c0-1.11,0.89-2,2-2c1.1,0,2,0.89,2,2v1v3H1v-3c0-1.1,0.9-2,2-2S5,57.4,5,58.5z"></path><path d="M63,62.5H1c-0.553,0-1-0.447-1-1s0.447-1,1-1h62c0.553,0,1,0.447,1,1S63.553,62.5,63,62.5z"></path><path d="M55.004,62.5H8.996c-0.553,0-1-0.447-1-1v-23c0-0.553,0.447-1,1-1s1,0.447,1,1v22h44.008v-22c0-0.553,0.447-1,1-1
				s1,0.447,1,1v23C56.004,62.053,55.557,62.5,55.004,62.5z"></path><path d="M36 62.5h-8c-.553 0-1-.447-1-1v-17c0-.553.447-1 1-1h8c.553 0 1 .447 1 1v17C37 62.053 36.553 62.5 36 62.5zM29 60.5h6v-15h-6V60.5zM1 62.5c-.553 0-1-.447-1-1v-3c0-1.654 1.346-3 2.999-3 .535 0 1.037.141 1.473.387C5.005 55.054 5.939 54.5 7 54.5c1.653 0 2.999 1.345 2.999 2.998V58.5c0 .553-.447 1-1 1s-1-.447-1-1v-1.002C7.999 56.947 7.551 56.5 7 56.5s-.999.447-.999.998V58.5c0 .553-.447 1-1 1s-1-.447-1-1c0-.552-.449-1-1.002-1C2.448 57.5 2 57.948 2 58.5v3C2 62.053 1.553 62.5 1 62.5zM63 62.5c-.553 0-1-.447-1-1v-3c0-.601-.17-1-.999-1-.553 0-1.002.448-1.002 1 0 .553-.447 1-1 1s-1-.447-1-1v-1.002c0-.551-.448-.998-.999-.998s-.999.447-.999.998V58.5c0 .553-.447 1-1 1s-1-.447-1-1v-1.002c0-1.653 1.346-2.998 2.999-2.998 1.061 0 1.995.554 2.528 1.387.436-.246.938-.387 1.473-.387 1.822 0 2.999 1.178 2.999 3v3C64 62.053 63.553 62.5 63 62.5zM5.995 39.502c-.104 0-.211-.017-.316-.052-.523-.174-.807-.74-.632-1.265l3.001-9.006c.173-.524.736-.81 1.265-.633.523.175.807.741.632 1.265l-3.001 9.007C6.804 39.237 6.414 39.502 5.995 39.502zM58.005 39.502c-.419 0-.809-.265-.948-.684l-3.001-9.007c-.175-.524.108-1.09.632-1.265.528-.177 1.09.109 1.265.633l3.001 9.006c.175.524-.108 1.091-.632 1.265C58.216 39.485 58.109 39.502 58.005 39.502z"></path><path d="M55.004 30.496H8.996c-.553 0-1-.448-1-1s.447-1 1-1h46.008c.553 0 1 .448 1 1S55.557 30.496 55.004 30.496zM58.005 39.502H5.995c-.553 0-1-.447-1-1s.447-1 1-1h52.01c.553 0 1 .447 1 1S58.558 39.502 58.005 39.502zM25.001 55.506H12c-.553 0-1-.447-1-1V44.5c0-.553.447-1 1-1h13.001c.553 0 1 .447 1 1v10.006C26.001 55.059 25.554 55.506 25.001 55.506zM13 53.506h11.001V45.5H13V53.506zM52.001 55.506H39c-.553 0-1-.447-1-1V44.5c0-.553.447-1 1-1h13.001c.553 0 1 .447 1 1v10.006C53.001 55.059 52.554 55.506 52.001 55.506zM40 53.506h11.001V45.5H40V53.506zM33 49.5h-2c-.553 0-1-.447-1-1s.447-1 1-1h2c.553 0 1 .447 1 1S33.553 49.5 33 49.5zM36 42.504h-7.833c-.553 0-1-.447-1-1s.447-1 1-1H36c.553 0 1 .447 1 1S36.553 42.504 36 42.504z"></path><path d="M13,52.502c-0.553,0-1-0.447-1-1s0.447-1,1-1c1.103,0,2-0.897,2-2c0-0.553,0.447-1,1-1s1,0.447,1,1
					C17,50.708,15.206,52.502,13,52.502z"></path><path d="M16 49.502c-.553 0-1-.447-1-1V44.5c0-.553.447-1 1-1s1 .447 1 1v4.002C17 49.055 16.553 49.502 16 49.502zM15 55.5c-.553 0-1-.447-1-1v-3.771c0-.553.447-1 1-1s1 .447 1 1V54.5C16 55.053 15.553 55.5 15 55.5zM13 52.502h-1c-.553 0-1-.447-1-1s.447-1 1-1h1c.553 0 1 .447 1 1S13.553 52.502 13 52.502zM24 52.502c-2.206 0-4-1.794-4-4 0-.553.447-1 1-1s1 .447 1 1c0 1.103.897 2 2 2 .553 0 1 .447 1 1S24.553 52.502 24 52.502z"></path><path d="M21 49.502c-.553 0-1-.447-1-1V44.5c0-.553.447-1 1-1s1 .447 1 1v4.002C22 49.055 21.553 49.502 21 49.502zM22 55.5c-.553 0-1-.447-1-1v-3.771c0-.553.447-1 1-1s1 .447 1 1V54.5C23 55.053 22.553 55.5 22 55.5zM25 52.502h-1c-.553 0-1-.447-1-1s.447-1 1-1h1c.553 0 1 .447 1 1S25.553 52.502 25 52.502zM40.001 52.502c-.553 0-1-.447-1-1s.447-1 1-1c1.103 0 2-.897 2-2 0-.553.447-1 1-1s1 .447 1 1C44.001 50.708 42.207 52.502 40.001 52.502z"></path><path d="M43.001 49.502c-.553 0-1-.447-1-1V44.5c0-.553.447-1 1-1s1 .447 1 1v4.002C44.001 49.055 43.554 49.502 43.001 49.502zM42.001 55.5c-.553 0-1-.447-1-1v-3.771c0-.553.447-1 1-1s1 .447 1 1V54.5C43.001 55.053 42.554 55.5 42.001 55.5zM40.001 52.502h-1c-.553 0-1-.447-1-1s.447-1 1-1h1c.553 0 1 .447 1 1S40.554 52.502 40.001 52.502zM51.001 52.502c-2.206 0-4-1.794-4-4 0-.553.447-1 1-1s1 .447 1 1c0 1.103.897 2 2 2 .553 0 1 .447 1 1S51.554 52.502 51.001 52.502z"></path><path d="M48.001 49.502c-.553 0-1-.447-1-1V44.5c0-.553.447-1 1-1s1 .447 1 1v4.002C49.001 49.055 48.554 49.502 48.001 49.502zM49.001 55.5c-.553 0-1-.447-1-1v-3.771c0-.553.447-1 1-1s1 .447 1 1V54.5C50.001 55.053 49.554 55.5 49.001 55.5zM52.001 52.502h-1c-.553 0-1-.447-1-1s.447-1 1-1h1c.553 0 1 .447 1 1S52.554 52.502 52.001 52.502zM56 33.502H8c-.553 0-1-.448-1-1s.447-1 1-1h48c.553 0 1 .448 1 1S56.553 33.502 56 33.502zM57 36.504H7c-.553 0-1-.447-1-1s.447-1 1-1h50c.553 0 1 .447 1 1S57.553 36.504 57 36.504z"></path><g><path d="M32.005,30.41c-0.553,0-1-0.448-1-1v-2.906c0-0.552,0.447-1,1-1s1,0.448,1,1v2.906
				C33.005,29.962,32.558,30.41,32.005,30.41z"></path></g><g><path d="M32.005,27.5c-0.553,0-1-0.448-1-1v-10c0-0.552,0.447-1,1-1s1,0.448,1,1v10C33.005,27.053,32.558,27.5,32.005,27.5z"></path><path d="M32.006,27.5c-0.298,0-0.593-0.133-0.79-0.386c-0.34-0.436-0.261-1.064,0.175-1.403l9.004-7.002
				c0.438-0.338,1.064-0.259,1.403,0.176c0.34,0.436,0.261,1.064-0.175,1.403l-9.004,7.002C32.437,27.432,32.22,27.5,32.006,27.5z"></path><path d="M32.004 27.5c-.214 0-.431-.069-.613-.21l-9.004-7.002c-.436-.339-.515-.967-.175-1.403.34-.435.967-.514 1.403-.176l9.004 7.002c.436.339.515.967.175 1.403C32.597 27.368 32.302 27.5 32.004 27.5zM32.006 17.504c-.298 0-.593-.133-.79-.386-.34-.436-.261-1.064.175-1.403l9.004-7.002c.438-.338 1.064-.259 1.403.176.34.436.261 1.064-.175 1.403l-9.004 7.002C32.437 17.436 32.22 17.504 32.006 17.504z"></path><path d="M32.004,17.504c-0.214,0-0.431-0.069-0.613-0.21l-9.004-7.004c-0.436-0.339-0.514-0.968-0.175-1.403
				c0.34-0.435,0.967-0.514,1.403-0.176l9.004,7.004c0.436,0.339,0.514,0.968,0.175,1.403
				C32.597,17.372,32.302,17.504,32.004,17.504z"></path><path d="M23.002,10.502c-0.298,0-0.593-0.133-0.79-0.386c-0.34-0.436-0.261-1.064,0.175-1.403l9.004-7.002
				c0.438-0.339,1.065-0.26,1.403,0.176c0.34,0.436,0.261,1.064-0.175,1.403l-9.004,7.002
				C23.433,10.434,23.216,10.502,23.002,10.502z"></path><path d="M41.008 10.504c-.214 0-.431-.069-.613-.21L31.391 3.29c-.436-.339-.514-.968-.175-1.403s.968-.515 1.403-.176l9.004 7.004c.436.339.514.968.175 1.403C41.601 10.372 41.306 10.504 41.008 10.504zM23.001 20.499c-.553 0-1-.448-1-1V9.502c0-.552.447-1 1-1s1 .448 1 1v9.996C24.001 20.051 23.554 20.499 23.001 20.499z"></path><path d="M41.009,20.499c-0.553,0-1-0.448-1-1V9.502c0-0.552,0.447-1,1-1s1,0.448,1,1v9.996
				C42.009,20.051,41.562,20.499,41.009,20.499z"></path></g></svg>