<svg xmlns="http://www.w3.org/2000/svg" viewBox="0 0 64 64" id="print"><path fill="#9ca8db" d="M59,19V42a4,4,0,0,1-4,4H52V38H12v8H9a4,4,0,0,1-4-4V19a4,4,0,0,1,4-4H55A4,4,0,0,1,59,19Z"></path><polygon fill="#d9e2ff" points="47 11 47 15 17 15 17 5 41 5 47 11"></polygon><rect width="30" height="21" x="17" y="38" fill="#d9e2ff"></rect><path fill="#6773ba" d="M17 38V51H15a3 3 0 0 1-3-3V38zM52 38V48a3 3 0 0 1-3 3H47V38z"></path><polygon fill="#9ca8db" points="47 11 41 11 41 5 47 11"></polygon><rect width="6" height="3" x="10" y="20" fill="#edbf4f" rx="1.5" ry="1.5"></rect><path fill="#edbf4f" d="M26,44h3a0,0,0,0,1,0,0v6a0,0,0,0,1,0,0H26a3,3,0,0,1-3-3v0a3,3,0,0,1,3-3Z"></path><polygon fill="#edbf4f" points="29 44 35 41 35 53 29 50 29 44"></polygon><path fill="#383e6d" d="M12,47H9a5,5,0,0,1-5-5V37a1,1,0,0,1,2,0v5a3,3,0,0,0,3,3h2V38a1,1,0,0,1,1-1H52a1,1,0,0,1,1,1v2a1,1,0,0,1-2,0V39H13v7A1,1,0,0,1,12,47Z"></path><path fill="#383e6d" d="M55 47H52a1 1 0 0 1-1-1V44a1 1 0 0 1 2 0v1h2a3 3 0 0 0 3-3V19a3 3 0 0 0-3-3H9a3 3 0 0 0-3 3v9a1 1 0 0 1-2 0V19a5 5 0 0 1 5-5H55a5 5 0 0 1 5 5V42A5 5 0 0 1 55 47zM5 34a1 1 0 0 1-1-1V32a1 1 0 0 1 2 0v1A1 1 0 0 1 5 34z"></path><path fill="#383e6d" d="M47 16H17a1 1 0 0 1-1-1V5a1 1 0 0 1 1-1h3a1 1 0 0 1 0 2H18v8H46V11.41L40.59 6H24a1 1 0 0 1 0-2H41a1 1 0 0 1 .71.29l6 6A1 1 0 0 1 48 11v4A1 1 0 0 1 47 16zM47 60H17a1 1 0 0 1-1-1V57a1 1 0 0 1 2 0v1H46V39H18V53a1 1 0 0 1-2 0V38a1 1 0 0 1 1-1H47a1 1 0 0 1 1 1V59A1 1 0 0 1 47 60z"></path><path fill="#383e6d" d="M17 52H15a4 4 0 0 1-4-4V38a1 1 0 0 1 1-1h5a1 1 0 0 1 1 1V51A1 1 0 0 1 17 52zM13 39v9a2 2 0 0 0 2 2h1V39zM49 52H47a1 1 0 0 1-1-1V38a1 1 0 0 1 1-1h5a1 1 0 0 1 1 1v2a1 1 0 0 1-2 0V39H48V50h1a2 2 0 0 0 2-2V44a1 1 0 0 1 2 0v4A4 4 0 0 1 49 52zM47 12H41a1 1 0 0 1-1-1V5a1 1 0 0 1 .62-.92 1 1 0 0 1 1.09.21l6 6a1 1 0 0 1 .21 1.09A1 1 0 0 1 47 12zm-5-2h2.59L42 7.41zM14.5 24h-3a2.5 2.5 0 0 1 0-5h3a2.5 2.5 0 0 1 0 5zm-3-3a.5.5 0 0 0 0 1h3a.5.5 0 0 0 0-1zM53 23a2 2 0 1 1 2-2A2 2 0 0 1 53 23zm0-2zM46 23a2 2 0 1 1 2-2A2 2 0 0 1 46 23zm0-2zM29 51H26a4 4 0 0 1 0-8h3a1 1 0 0 1 1 1v6A1 1 0 0 1 29 51zm-3-6a2 2 0 0 0 0 4h2V45z"></path><path fill="#383e6d" d="M35,54a1,1,0,0,1-.45-.11l-6-3A1,1,0,0,1,28,50V44a1,1,0,0,1,.55-.89l6-3A1,1,0,0,1,36,41V53a1,1,0,0,1-.47.85A1,1,0,0,1,35,54Zm-5-4.62,4,2V42.62l-4,2Z"></path><path fill="#edbf4f" d="M41 48H39a1 1 0 0 1 0-2h2a1 1 0 0 1 0 2zM39 44a1 1 0 0 1-.89-.55 1 1 0 0 1 .44-1.34l2-1a1 1 0 1 1 .9 1.78l-2 1A.93.93 0 0 1 39 44zM41 53a.93.93 0 0 1-.45-.11l-2-1a1 1 0 1 1 .9-1.78l2 1a1 1 0 0 1 .44 1.34A1 1 0 0 1 41 53z"></path><path fill="#383e6d" d="M26,55a1,1,0,0,1-1-1V50a1,1,0,0,1,2,0v4A1,1,0,0,1,26,55Z"></path></svg>