<svg xmlns="http://www.w3.org/2000/svg" enable-background="new 0 0 64 64" viewBox="0 0 64 64" id="3d"><polygon fill="#58575d" points="42.5 15.5 16.5 15.5 8.5 15.5 8.5 49.5 55.5 49.5 55.5 15.5"></polygon><polygon fill="#a6daf6" points="42.5 18.5 16.5 18.5 11.5 18.5 11.5 40.5 52.5 40.5 52.5 18.5"></polygon><polygon fill="#e1e2e7" points="31.5 6.5 14.5 6.5 14.5 35.5 31.915 35.5 36.5 29.769 36.5 11.5"></polygon><polygon fill="#e1e2e7" points="42.5 43.486 16.5 43.486 8.5 43.486 8.5 49.5 55.5 49.5 55.5 43.486"></polygon><path fill="#f3745c" d="M41.514 32.574l-.742-1.857-1.647.224.266-1.641-1.838-.789-1.007 1.323-.972-1.348-1.857.742.224 1.647L32.3 30.609l-.789 1.838 1.323 1.006-1.348.972.742 1.857 1.647-.224L33.609 37.7l1.838.789 1.007-1.323.972 1.348 1.857-.742-.224-1.647 1.641.266.789-1.838-1.323-1.006L41.514 32.574zM36.5 34.5c-.552 0-1-.448-1-1 0-.552.448-1 1-1s1 .448 1 1C37.5 34.052 37.052 34.5 36.5 34.5zM53.5 23.7l-1.29-.323.684-1.14-1.131-1.131-1.14.684L50.3 20.5h-1.6l-.323 1.29-1.14-.684-1.131 1.131.684 1.14L45.5 23.7v1.6l1.29.323-.684 1.14 1.131 1.131 1.14-.684L48.7 28.5h1.6l.323-1.29 1.14.684 1.131-1.131-.684-1.14L53.5 25.3V23.7zM49.5 25.5c-.552 0-1-.448-1-1 0-.552.448-1 1-1s1 .448 1 1C50.5 25.052 50.052 25.5 49.5 25.5z"></path><polygon fill="#c7c5cd" points="36.5 11.5 31.5 11.5 31.5 6.5"></polygon><rect width="13" height="8" x="25.5" y="49.5" fill="#e1e2e7"></rect><rect width="5" height="2" x="29.5" y="45.5" fill="#58575d"></rect><polygon fill="#fede4c" points="25.5 10.726 20.5 13.613 20.5 19.387 25.5 22.274 30.5 19.387 30.5 13.613"></polygon><polygon fill="#fee473" points="25.5 22.274 30.5 19.387 30.494 13.613 25.494 16.5"></polygon><polygon fill="#feea98" points="25.5 16.483 30.485 13.605 25.5 10.726 20.515 13.605"></polygon><path d="M31,19.58v-6.173l-5.5-3.175L20,13.407v6.173l5.5,3.175L31,19.58z M30,19.002l-4,2.31v-4.5l4-2.31V19.002z M25.5,11.387   l3.948,2.28L25.5,15.946l-3.948-2.279L25.5,11.387z M25,21.312l-4-2.31v-4.5l4,2.31V21.312z"></path><path d="M56,50V15H37v-3.707l-0.146-0.146l-5-5L31.707,6H14v9H8v35h17v7h-7v1h7h14h7v-1h-7v-7H56z M37.715,29.124l1.12,0.481   l-0.311,1.921l1.929-0.262l0.452,1.133l-1.579,1.139l1.549,1.179l-0.481,1.121l-1.921-0.312l0.261,1.929l-1.132,0.452l-1.139-1.579   l-1.179,1.55l-1.12-0.481l0.311-1.921l-1.929,0.262l-0.452-1.133l1.578-1.139l-1.548-1.179l0.481-1.121l1.921,0.312l-0.261-1.929   l1.132-0.452l1.139,1.579L37.715,29.124z M32,8.5V7.707L35.293,11H34.5H32V8.5z M15,7h16v1.5v3V12h0.5h3H36v16.221l-0.249-0.345   l-2.582,1.032l0.185,1.364l-1.36-0.22l-1.096,2.555l1.096,0.835l-1.117,0.807l0.3,0.751H15V7z M31.576,36l0.332,0.831l1.365-0.186   l-0.22,1.36l2.556,1.097l0.834-1.097l0.806,1.118l2.582-1.032l-0.185-1.364l1.36,0.22l1.096-2.555l-1.096-0.835l1.117-0.807   l-1.031-2.582l-1.365,0.186l0.22-1.36l-2.556-1.097L37,28.412V19h15v1.635l-0.16-0.16l-0.896,0.538L50.69,20h-2.38l-0.254,1.014   l-0.896-0.538l-1.683,1.685l0.538,0.896L45,23.31v2.381l1.014,0.253l-0.538,0.896l1.683,1.685l0.896-0.538L48.31,29h2.38   l0.254-1.014l0.896,0.538l0.16-0.16V40H12V19h2v17H31.576z M53,24.091v0.818l-1.566,0.392l0.831,1.385l-0.58,0.579l-1.384-0.831   L49.91,28H49.09l-0.392-1.566l-1.384,0.831l-0.58-0.579l0.831-1.385L46,24.909v-0.818l1.566-0.393l-0.831-1.384l0.58-0.579   l1.384,0.831L49.09,21h0.819l0.392,1.566l1.384-0.831l0.58,0.579l-0.831,1.385L53,24.091z M9,16h5v2h-3v23h42V27.364l0.523-0.524   l-0.538-0.896L54,25.69V23.31l-1.014-0.253l0.538-0.896L53,21.636V18H37v-2h18v26.986H9V16z M38,57H26v-7h12V57z M25,49H9v-5.014   h46V49H39H25z"></path><path d="M29,48h6v-3h-6V48z M30,46h4v1h-4V46z"></path><polygon points="27.354 28.771 25.5 26.918 23.646 28.771 24.354 29.479 25 28.832 25 31.375 26 31.375 26 28.832 26.646 29.479"></polygon><path d="M25.5 25c-.315 0-.63.033-.936.099l.21.979C25.011 26.025 25.255 26 25.5 26c.921 0 1.823.374 2.475 1.025C28.626 27.677 29 28.579 29 29.5c0 .292-.037.583-.109.864l.968.25C29.953 30.251 30 29.876 30 29.5c0-1.184-.48-2.344-1.318-3.182C27.844 25.48 26.685 25 25.5 25zM28.055 31.882l.73.682c.256-.273.478-.579.659-.907l-.876-.482C28.427 31.43 28.254 31.668 28.055 31.882zM22.264 30.826l-.923.385c.144.346.331.674.555.974l.801-.6C22.522 31.352 22.376 31.096 22.264 30.826zM23.952 26.366l-.446-.895c-.334.167-.648.376-.933.621l.653.758C23.447 26.659 23.692 26.496 23.952 26.366zM22.673 32.993c.294.238.614.438.951.594l.42-.908c-.262-.121-.511-.276-.741-.463L22.673 32.993zM26.599 32.82l.316.949c.354-.118.694-.282 1.011-.487l-.543-.84C27.137 32.602 26.873 32.729 26.599 32.82zM24.875 32.942l-.182.984C24.958 33.976 25.229 34 25.5 34c.106 0 .212-.003.316-.011l-.074-.998C25.451 33.012 25.155 32.994 24.875 32.942zM21.292 27.912l.935.357c.103-.271.241-.53.411-.771l-.818-.576C21.603 27.231 21.425 27.564 21.292 27.912zM22 29.5c0-.13.007-.259.021-.387l-.994-.109C21.009 29.169 21 29.333 21 29.5c0 .214.015.423.044.627l.99-.141C22.011 29.827 22 29.665 22 29.5z"></path><rect width=".674" height="1.001" x="44.309" y="22.163" transform="rotate(-31.023 44.642 22.662)"></rect><rect width="1" height="1" x="37.429" y="26.2" transform="rotate(-30.972 37.932 26.701)"></rect><rect width="1" height="1" x="42.572" y="23.109" transform="rotate(-30.972 43.075 23.61)"></rect><rect width="1" height="1" x="40.857" y="24.139" transform="rotate(-30.972 41.36 24.64)"></rect><rect width="1" height="1" x="39.143" y="25.169" transform="rotate(-30.972 39.646 25.67)"></rect><rect width="1" height="1" x="48.611" y="29.315" transform="rotate(-38.977 49.108 29.814)"></rect><rect width="1" height="1" x="47.057" y="30.573" transform="rotate(-38.977 47.553 31.073)"></rect><rect width=".799" height="1" x="42.572" y="34.285" transform="rotate(-38.977 42.968 34.784)"></rect><rect width="1" height="1" x="43.948" y="33.09" transform="rotate(-38.977 44.445 33.59)"></rect><rect width="1" height="1" x="45.502" y="31.831" transform="rotate(-38.977 46 32.33)"></rect><path d="M36.5 35c.827 0 1.5-.673 1.5-1.5S37.327 32 36.5 32 35 32.673 35 33.5 35.673 35 36.5 35zM36.5 33c.276 0 .5.225.5.5S36.776 34 36.5 34 36 33.775 36 33.5 36.224 33 36.5 33zM49.5 23c-.827 0-1.5.673-1.5 1.5s.673 1.5 1.5 1.5 1.5-.673 1.5-1.5S50.327 23 49.5 23zM49.5 25c-.276 0-.5-.225-.5-.5s.224-.5.5-.5.5.225.5.5S49.776 25 49.5 25z"></path></svg>