<svg xmlns="http://www.w3.org/2000/svg" width="655.359" height="655.359" fill-rule="evenodd" clip-rule="evenodd" image-rendering="optimizeQuality" shape-rendering="geometricPrecision" text-rendering="geometricPrecision" viewBox="0 0 6.827 6.827" id="printing"><circle cx="3.413" cy="3.413" r="3.413" fill="#539256"></circle><circle cx="3.413" cy="3.413" r="3.2" fill="#66bb6a"></circle><path fill="#fffffe" fill-rule="nonzero" d="M2.05603 2.54324l2.71461 0c0.0707441,0 0.135035,0.0289173 0.181614,0.0754961 0.0465827,0.0465787 0.0755,0.110874 0.0755,0.181618l0 1.22595c0,0.0707441 -0.0289173,0.135035 -0.0755,0.181618 -0.0465787,0.0465787 -0.11087,0.0754961 -0.181614,0.0754961l-0.394055 0 -1.9265 0 -0.394055 0c-0.0707441,0 -0.135035,-0.0289173 -0.181614,-0.0754961 -0.0465827,-0.0465827 -0.0755,-0.110874 -0.0755,-0.181618l0 -1.22595c0,-0.0707441 0.0289173,-0.135039 0.0755,-0.181618 0.0465787,-0.0465787 0.11087,-0.0754961 0.181614,-0.0754961zm0.224406 0.607252c0.046811,0 0.0892008,-0.0189803 0.119886,-0.0496614 0.0306811,-0.030685 0.0496614,-0.0730709 0.0496614,-0.119886 0,-0.046815 -0.0189843,-0.0892008 -0.0496614,-0.119882 -0.030685,-0.030685 -0.0730748,-0.0496654 -0.119886,-0.0496654 -0.046815,0 -0.0892008,0.0189803 -0.119886,0.0496654 -0.0306811,0.0306811 -0.0496614,0.0730669 -0.0496614,0.119882 0,0.046815 0.0189764,0.0892008 0.0496614,0.119886 0.030685,0.0306811 0.0730748,0.0496614 0.119886,0.0496614z"></path><path fill="#fffffe" fill-rule="nonzero" d="M4.41477 4.24523l0 .709752c0 .080252-.0328031.153185-.0856496.206031-.0528465.0528465-.12578.0856496-.206028.0856496l-1.41953 0c-.080248 0-.153181-.0328031-.206028-.0856496-.0528465-.0528465-.0856496-.12578-.0856496-.206031l0-.709752 0-.0381969.0381929 0 1.9265 0 .0381929 0 0 .0381969zm-1.80593.289969l1.22595 0 0-.0763898-1.22595 0 0 .0763898zm1.22595.147957l-1.22595 0 0 .0763937 1.22595 0 0-.0763937zm-.370374.22435l-.855579 0 0 .0763898.855579 0 0-.0763898zM2.70954 1.58l1.41952 0c.087689 0 .171079.0348819.233035.0968386.0619567.0619567.0968386.14535.0968386.233035l0 .786142-2.07927 0 0-.786142c0-.087685.034878-.171079.0968386-.233035.0619528-.0619567.145346-.0968386.233035-.0968386zm-.177098.96324l1.77372 0 0-.633366c0-.0471102-.018815-.091748-.0520827-.125016-.0332717-.0332717-.0779055-.0520827-.125016-.0520827l-1.41952 0c-.0471102 0-.0917441.018811-.125016.0520827-.0332717.0332677-.0520827.0779055-.0520827.125016l0 .633366z"></path></svg>