<svg xmlns="http://www.w3.org/2000/svg" viewBox="0 0 328.88 373.92"><defs><style>.cls-1,.cls-2{fill:none;stroke:#000;stroke-miterlimit:10;}.cls-1{stroke-width:20px;}.cls-2{stroke-linecap:round;stroke-width:13px;}</style></defs><g id="Layer_2" data-name="Layer 2"><g id="Category_BW" data-name="Category BW"><path class="cls-1" d="M318.35,144.89c.24,60.74,1.24,167.92-1.38,228.59"/><path class="cls-1" d="M11.43,373.48c.91-69.48-3.83-184.15.26-253.57.93-15.69,1.12-32.29,5-47.4A80.26,80.26,0,0,1,36.55,37.38c20.11-21,45.51-25.67,71.13-26.13,31.83-.56,63.69-2.13,95.52-.6"/><path class="cls-1" d="M328.88,143.16H201.19a8.35,8.35,0,0,1-8.2-8.5V.84"/><path class="cls-2" d="M221,198.87c2.4,5.44,1.76,11-1,13.84a12.85,12.85,0,0,1-5.19,3,11.5,11.5,0,0,1-2.89.37H125.55a8.68,8.68,0,0,1-4.65-1.3c-4-2.56-5.53-8.81-3.62-15.53"/><path class="cls-2" d="M221.23,252.52c2.39,5.44,1.75,11-1,13.84a12.79,12.79,0,0,1-5.19,3,11.43,11.43,0,0,1-2.88.37H125.8a8.75,8.75,0,0,1-4.65-1.3c-4-2.55-5.52-8.8-3.62-15.53"/><path class="cls-2" d="M221,305.39c2.4,5.44,1.76,11.06-1,13.84a12.85,12.85,0,0,1-5.19,3,11.5,11.5,0,0,1-2.89.37H125.55a8.6,8.6,0,0,1-4.65-1.3c-4-2.55-5.53-8.8-3.62-15.53"/></g></g></svg>