<svg xmlns="http://www.w3.org/2000/svg" viewBox="0 0 680.85 397.63"><defs><style>.cls-1,.cls-2{fill:none;stroke-linecap:round;stroke-linejoin:round;}.cls-1,.cls-2,.cls-3{stroke:#000;}.cls-1{stroke-width:20px;}.cls-2,.cls-3{stroke-width:10px;}.cls-3{fill:#fff6f5;stroke-miterlimit:10;}</style></defs><g id="Layer_2" data-name="Layer 2"><g id="Category_BW" data-name="Category BW"><rect class="cls-1" x="10" y="10" width="660.85" height="377.63" rx="28.68"/><rect class="cls-2" x="64.84" y="64.97" width="230.16" height="260.51"/><line class="cls-2" x1="373.88" y1="109.5" x2="579.42" y2="109.5"/><line class="cls-2" x1="373.88" y1="173.26" x2="579.42" y2="173.26"/><line class="cls-2" x1="373.88" y1="231.39" x2="579.42" y2="231.39"/><line class="cls-2" x1="373.88" y1="291.15" x2="579.42" y2="291.15"/><path class="cls-3" d="M244,297.21l-8.33-54.41c-1.67-11-11.26-19.44-21.4-19.44H143.52c-7.79,0-15.26,5-19.05,12.32a22.78,22.78,0,0,0-2.35,7.12l-8.33,54.41c-2.23,14.61,5.47,27.45,17.47,28.7a17.41,17.41,0,0,0,1.93.11h91.37C237.65,326,246.31,312.59,244,297.21Z"/><path class="cls-3" d="M135,193.38a54,54,0,1,0-9.89-31.09A53.71,53.71,0,0,0,135,193.38Z"/></g></g></svg>