<svg xmlns="http://www.w3.org/2000/svg" viewBox="0 0 385.49 426.05"><defs><style>.cls-1,.cls-2,.cls-3{fill:none;stroke:#000;stroke-miterlimit:10;}.cls-1{stroke-width:20px;}.cls-2{stroke-width:9px;}.cls-3{stroke-width:15px;}</style></defs><g id="Layer_2" data-name="Layer 2"><g id="Category_BW" data-name="Category BW"><path class="cls-1" d="M56.64,288H10V124.56a12.87,12.87,0,0,1,12.83-12.83H362.66a12.88,12.88,0,0,1,12.83,12.83V288H328.2"/><path class="cls-1" d="M262.78,242.57V386.34a29.71,29.71,0,0,1-29.71,29.71H149.36a29.71,29.71,0,0,1-29.71-29.71V242.57"/><polyline class="cls-1" points="90.04 260.11 90.04 242.66 295.14 242.66 295.14 260.11"/><rect class="cls-2" x="93.24" y="185.38" width="159.74" height="14.5"/><circle class="cls-3" cx="282.6" cy="191.35" r="8.53"/><path class="cls-1" d="M330.08,110.92l.27-83.06c0-9.48-25.29-17.24-56.55-17.35L114.34,10c-31.26-.1-56.63,7.5-56.66,17L57.41,110"/></g></g></svg>