<svg xmlns="http://www.w3.org/2000/svg" viewBox="0 0 684.43 247.05"><defs><style>.cls-1,.cls-2{fill:none;stroke:#000;stroke-linecap:round;stroke-linejoin:round;}.cls-1{stroke-width:20px;}.cls-2{stroke-width:12px;}</style></defs><g id="Layer_2" data-name="Layer 2"><g id="Category_BW" data-name="Category BW"><path d="M11.87,202.53c.42-1.07-.37.76,0,.09.13-.25.24-.51.36-.76q.3-.6.63-1.17c.24-.43.5-.85.77-1.27.15-.23.31-.45.47-.67l.19-.27c.32-.43.26-.35-.19.23,0-.21.69-.82.85-1,.36-.4.74-.8,1.12-1.18.71-.7,1.46-1.34,2.22-2s-.69.49-.09.07l.67-.49,1.12-.75c.95-.61,1.93-1.18,2.93-1.71s1.85-.93,2.8-1.35c.21-.09.43-.17.64-.28-1,.53-.5.21-.23.1.54-.21,1.09-.43,1.64-.63a80.52,80.52,0,0,1,12.57-3.41c1.15-.23,2.3-.43,3.46-.63q1.11-.19,2.22-.36l.89-.14c.12,0,1.6-.21.46-.07a76.87,76.87,0,0,1,8.3-.63c1.27,0,2.53,0,3.79.09.74,0,1.47.12,2.21.2.21,0,1,.17,0,0l1.31.22a34.54,34.54,0,0,1,3.86,1q.86.25,1.68.57s1.31.54.64.25.67.31.8.38a46,46,0,0,1,7,4.22c.54.39,1.07.79,1.6,1.19.11.08.84.65.38.28s.58.46.54.43c1.1.87,2.19,1.76,3.28,2.65a91.32,91.32,0,0,1,12.07,11.1c.69.8,1.34,1.63,2,2.45.43.54-.54-.72-.13-.17l.54.71,1.06,1.44c1.3,1.79,2.55,3.6,3.82,5.42a97,97,0,0,0,9.55,12.2,35.4,35.4,0,0,0,13.35,8.78,5,5,0,0,0,6.15-3.49,5.13,5.13,0,0,0-3.5-6.15l-.81-.31c-.7-.25,1.12.54.09,0-.46-.23-.92-.44-1.38-.68a25.48,25.48,0,0,1-2.73-1.66l-.81-.58c-.31-.22-.45-.56.21.17a13.24,13.24,0,0,0-1.16-1c-.86-.75-1.67-1.53-2.46-2.35s-1.48-1.6-2.19-2.43c-.3-.35-.59-.71-.89-1.07l-.54-.68-.33-.42c.39.51.47.61.25.32-1.39-1.85-2.74-3.73-4.06-5.62-2.76-4-5.5-7.94-8.62-11.62a88.91,88.91,0,0,0-12.23-11.36c-4.54-3.69-9.11-7.54-14.36-10.19a41.83,41.83,0,0,0-18.12-4.3,90.86,90.86,0,0,0-18.08,1.86,87.19,87.19,0,0,0-12.94,3.25,49.85,49.85,0,0,0-14.7,7.68,29.89,29.89,0,0,0-9.46,12.79c-1,2.44,1,5.59,3.49,6.15,2.88.65,5.12-.88,6.15-3.49Z"/><path d="M181.67,241.84c18.23,1.42,36.29-5.12,53.15-11.31,16.45-6,32.53-13,48.5-20.24,31.52-14.22,62.8-29.32,96.07-39.09,34.51-10.14,70.57-14,106.47-12.77,32.59,1.11,65.57,5.87,96.51,16.4,26.86,9.14,52.91,23.38,71.11,45.62,2.11,2.58,4,5.29,5.89,8.06a5.11,5.11,0,0,0,6.84,1.8,5.05,5.05,0,0,0,1.79-6.84c-16.58-25-42-41.88-69.35-53.17-30-12.37-62.51-18.23-94.71-20.83-36.72-3-74-.8-109.94,7.55-34.66,8-67.25,22.58-99.51,37.27-15.82,7.2-31.61,14.47-47.73,21-8.2,3.3-16.48,6.42-24.86,9.24-8.63,2.91-17.44,5.73-26.49,7a64.43,64.43,0,0,1-13.74.37c-2.7-.21-5,2.45-5,5a5.09,5.09,0,0,0,5,5Z"/><path class="cls-1" d="M674.43,39.87V207.18a29.87,29.87,0,0,1-29.88,29.87H39.87A29.87,29.87,0,0,1,10,207.18V39.87A29.87,29.87,0,0,1,39.87,10H644.55A29.87,29.87,0,0,1,674.43,39.87Z"/><circle class="cls-2" cx="157.58" cy="121.73" r="66.32"/><path d="M399.56,73.4a489.41,489.41,0,0,1,60.06-1.53,5,5,0,0,0,5-5,5.11,5.11,0,0,0-5-5,489.41,489.41,0,0,0-60.06,1.53c-2.6.23-5.13,2.14-5,5,.11,2.51,2.21,5.24,5,5Z"/><path d="M365.54,107.39q26.32-1,52.67-1.51t52.93-.68q14.85-.08,29.71,0a5,5,0,0,0,5-5,5.09,5.09,0,0,0-5-5q-26.34-.1-52.68.2t-52.93,1q-14.85.41-29.7,1c-2.61.1-5.12,2.24-5,5a5.07,5.07,0,0,0,5,5Z"/></g></g></svg>