<svg xmlns="http://www.w3.org/2000/svg" enable-background="new 0 0 216.907 305.349" viewBox="0 0 216.907 305.349" id="banner"><path d="M94.908 3.999h117.999v240.437H94.908v-96.81c-1.414-.002-2.767-.3-4-.837v101.647h20.752l-17.213 46.457 8.439 3.127 18.371-49.584h28.15v56.912h9v-56.912h28.149l18.371 49.584 8.439-3.127-17.213-46.457h20.752V0H90.908v115.003c1.463 1.814 2.797 3.492 4 5.034V3.999zM74.912 90.858c0-12.426-10.074-22.5-22.5-22.5-12.426 0-22.5 10.074-22.5 22.5 0 9.609 6.025 17.806 14.502 21.031H60.41C68.887 108.664 74.912 100.468 74.912 90.858z"></path><path d="M90.801,145.74c0.826,0.316,1.705,0.819,3.932,0.885c0.738-0.002,1.668-0.087,2.752-0.457
		c1.621-0.501,3.529-1.962,4.457-3.665c0.969-1.695,1.125-3.207,1.131-4.238c-0.033-1.707-0.365-2.599-0.635-3.379
		c-0.01-0.023-0.016-0.049-0.023-0.072c-0.711-1.811-1.482-3.016-2.592-4.732c-3.279-4.935-9.682-13.111-21.492-27.18
		c-0.941-1.121-2.127-1.91-3.412-2.373c-2.021,4.688-5.463,8.623-9.783,11.26c0.018,0.031,0.033,0.063,0.049,0.094h9.438
		c2.594,0,5.053,0.989,6.926,2.784l1.305,1.239c0.83,0.786,3.354,3.135,3.354,3.135l-0.92,1.871
		c-0.144-0.135-0.297-0.273-0.438-0.404c-1.357-1.254-2.537-2.359-3.371-3.148c-0.836-0.789-1.313-1.246-1.314-1.248
		c-1.498-1.438-3.463-2.229-5.539-2.229h-10c-0.053,0-0.104,0.007-0.154,0.008H28.68c-0.32-0.039-0.643-0.064-0.973-0.064
		c-3.951,0.027-7.385,1.305-10.49,3.07c-4.644,2.696-8.699,6.67-11.857,11.558C2.242,133.335,0.018,139.232,0,145.757
		c0,2.527,0.35,5.137,1.131,7.72c0.16,0.53,0.385,1.021,0.639,1.489c-0.043,0.008-0.082,0.012-0.123,0.018
		c1.709,4.645,4.834,9.04,9.254,12.674c2.006,1.655,4.277,3.167,6.801,4.551V151.56c-0.58-0.924-0.979-1.821-1.25-2.698
		c0-0.003-0.002-0.006-0.002-0.009c-0.182-0.602-0.299-1.207-0.371-1.823c-0.047-0.418-0.078-0.84-0.078-1.272
		c-0.049-3.121,1.418-6.864,3.699-9.928v152.182c0,6.83,5.537,12.363,12.363,12.363c6.828,0,12.365-5.533,12.365-12.363v-90.271
		h4.635v90.271c0,6.83,5.537,12.363,12.363,12.363c6.828,0,12.365-5.533,12.365-12.363V132.077c1.258,1.161,2.678,2.459,4.15,3.777
		c0.137,0.123,0.275,0.247,0.414,0.371c2.422,2.158,4.934,4.327,7.187,6.088c0.338,0.264,0.66,0.5,0.988,0.746
		c0.775,0.581,1.537,1.132,2.328,1.629C89.434,145.042,90.016,145.385,90.801,145.74z"></path></svg>