<svg xmlns="http://www.w3.org/2000/svg" viewBox="0 0 1024 1024" id="card"><path d="M813.7 184v179.2l20-20H229.4c-21.1 0-41.4 10-51.8 28.9-7 12.6-7.3 25.7-7.3 39.4v269.3l20-20h-90c-.3 0-4.2 0-4.2-.2l2.7.3c-.9-.2-1.7-.4-2.6-.6-.8-.2-1.7-.5-2.5-.8-2-.8-1.6-.6 1.1.6 0 .1-3.2-1.7-3.4-1.8-4.1-2.4 0 .1-.2.2-.2.2-5.6-5.2-5.4-5.4.5-.5 2.4 3.7.9.9-.6-1.1-1.3-2.3-1.9-3.4-2.2-3.8 1.1 4.2 0 0-.1-.4-1.5-5.1-1.3-5.1l.3 2.7c-.1-.9-.2-1.8-.2-2.7-.1-1.7 0-.9 0-1.4v-1.2c-.2-34.6 0-69.3 0-103.9V182.7c0-.5.1-.9.1-1.4.2-2.2.2-1.8-.2 1.3-.1 0 1.2-4.7 1.3-5.1 1.1-4.3-2.2 3.7 0 0 .7-1.1 1.3-2.2 1.9-3.4 2.1-3.8-3.1 3.1 0-.1.9-.9 1.7-1.9 2.7-2.8 3.4-3.2 0 0-.1-.1s3-1.9 3.3-2.1c4.2-2.3-.1-.1-.1-.2 0-.2 3.2-1.1 3.8-1.2.4-.1.9-.2 1.3-.3 2.2-.4 1.7-.4-1.4.1 0-.2 3.8-.2 4.1-.2h628.4c22.8 0 45.6-.3 68.4 0 .5 0 4.2-.1 4.2.2.1.5-4.8-1.3-.7.1 1 .3 2.1.6 3.2.9 4.3 1.1-3.7-2.2 0 0 1.1.7 2.2 1.3 3.4 1.9 3.8 2.1-3.1-3.1.1 0 .9.9 1.9 1.7 2.8 2.7 3.2 3.4 0 0 .1-.1s1.9 3 2.1 3.3c2.3 4.2.1-.1.2-.1.2 0 1.1 3.5 1.2 3.8.1.4.2.9.3 1.3.4 2.2.4 1.7-.1-1.4-.2.1-.2 3.9-.2 4.2.2 10.5 9.1 20.5 20 20 10.7-.5 20.2-8.8 20-20-.6-31.2-25.5-56.3-56.8-56.8H120.7c-6.9 0-13.7-.1-20.6 0-24.9.4-46.2 16.1-54.2 39.6-2.4 6.9-2.7 14.2-2.7 21.4V643.7c.3 24.5 15.4 45.5 38.3 53.9 11.5 4.2 24.4 3.1 36.4 3.1h72.2c10.8 0 20-9.2 20-20V484.8c0-27.7-.1-55.3 0-83V399.2c0-.9.1-1.8.2-2.7.1-2.7-1.1 3.8-.1 1.3.6-1.5 1.1-3.5 1.4-5.1.5-2.5-1.9 3.3-.5 1.2.6-.9 1-1.9 1.5-2.8-.1.2 1.4-2.2 1.4-2.2.4.2-2.9 3.2-.8 1l3.6-3.6c2.7-2.6-.9.9-1 .8 0 0 1.9-1.2 2.2-1.4.7-.4 1.5-.8 2.3-1.3 3.6-2.1-4 1.1 0 0 .3-.1 5.1-1.5 5.1-1.3 0 .3-5.3.3-1.3.2.9 0 1.8-.1 2.7-.1h.2c3.9-.1 7.8 0 11.7 0h594.9c10.8 0 20-9.2 20-20V184c0-10.5-9.2-20.5-20-20-10.7.5-19.9 8.8-19.9 20z"></path><path d="M63.3 290.6H802.4c10 0 20.1.2 30.1 0h1.3c10.5 0 20.5-9.2 20-20s-8.8-20-20-20H94.7c-10 0-20.1-.2-30.1 0h-1.3c-10.5 0-20.5 9.2-20 20 .5 10.9 8.8 20 20 20zM940.7 400V839.9c0 .5 0 4.2-.2 4.3-.4.1 1.2-5.2.1-1.4-.4 1.2-.7 2.5-1.1 3.8-1.1 4 1.8-2.5.3-.6-.8 1.1-1.6 2.7-2.2 3.9-2 3.6 2.4-2.1.4-.4-.8.7-1.4 1.6-2.2 2.4-.2.2-2.7 2.7-2.9 2.6-.5-.5 3.7-2.4.9-.9-1.1.6-2.3 1.3-3.4 1.9-3.7 2.2 4.2-1.1 0 0-.8.2-1.7.5-2.5.8-.9.2-1.7.4-2.6.6 3.1-.4 3.5-.4 1.3-.2-17.7.2-35.4.1-53.1.1H280.6c-17.9 0-35.8.3-53.6 0h-1.4c-.5 0-.9-.1-1.4-.1-2.2-.2-1.8-.2 1.3.2 0 .1-3.6-.9-3.9-.9-.3-.1-2.5-.8-2.5-.8 0-.1 4.2 2.1.1-.2-.7-.4-1.5-.9-2.2-1.3-1.8-1.2-1.4-.9.9.9-.7-.5-1.3-1.1-1.9-1.7-.8-.7-1.5-1.5-2.2-2.3-2.9-2.9.7.3.3.5-.2.1-3.3-5.5-3.2-5.6.2-.1 1.5 4.5.2-.1-.1-.3-1-3.9-.9-3.9.3 0 .3 5.3.2 1.3 0-1.1-.1-1.6-.1-2.8V480.9c0-26.9-.4-53.9 0-80.8v-.1c0-.5-.1.8 0-1.4 0-.5.1-.9.1-1.4.2-2.2.2-1.8-.2 1.3.1 0 1.3-6.4 1.8-6.3.1 0-2.1 4.2.2.1.1-.1 1.9-3.3 2.1-3.3.1.1-3.1 3.5.1.1.7-.8 1.5-1.5 2.3-2.2 2.9-2.9-.3.7-.5.3-.1-.1 3-1.9 3.3-2.1.3-.2 2.3-1.2 2.3-1.2.1.2-4.5 1.5.1.2 1-.3 2.3-.4 3.2-.8 1.5-.3.9-.2-2 .2.9-.1 1.8-.2 2.7-.2 1.6-.1 3.2 0 4.7 0h694.9c.5 0 .9.1 1.4.1 1.8.2 1.8.2 0 0-.4-.1-.9-.1-1.3-.2.9.2 1.7.4 2.6.6.3.1 3.8 1 3.8 1.2-.1.6-3.9-2-1.2-.4 1.1.7 2.2 1.3 3.4 1.9 3.8 2.1-3-3.1.1 0 .5.5 4.7 4.3 4.5 4.6-.4.4-2.4-4.1-.5-.4.5.9 1.1 1.9 1.6 2.8 2.2 3.7-1.1-4.2 0 0 .2.8.5 1.7.8 2.5.1.4.2.9.3 1.3.4 2.2.4 1.7-.1-1.4-.1 0-.1 3.8-.1 4.1.2 10.5 9.1 20.5 20 20 10.7-.5 20.2-8.8 20-20-.5-26.1-18.9-50.8-45.4-55.5-4.8-.9-9.4-1.2-14.2-1.2H229.6c-5.4 0-10.7.4-15.9 1.6-25.4 5.7-43 29.6-43.4 55.2-.1 7.3 0 14.5 0 21.8V835c0 2.6-.1 5.2.1 7.8 2.1 28.3 23 50.3 51.2 53.6 6 .7 12.2.4 18.2.4h672.5c8.8 0 17.6.4 26.3-1.9 24.8-6.5 41.7-29.6 42.1-54.9V400c0-10.5-9.2-20.5-20-20s-20 8.8-20 20z"></path><path d="M300.3 758.8h69.3c10.5 0 20.5-9.2 20-20s-8.8-20-20-20h-69.3c-10.5 0-20.5 9.2-20 20s8.8 20 20 20zm116.3-166.3H323.4c-2.2.1-1.3.7-.2.2 1.2-.6 1.7.4 0-.1.2 0-2.5-.6-2.6-.8 0-.8 3.9 2.2 1.2.3-3.1-2.2.8.9.9.9-.1.1-2-1.9-1.9-1.8-2.4-2.1 1.5.7.7 1-.1 0-1-1.6-1-1.7-1-2.2 1.1 4.1.2.5 0 .2-.7-2.6-.6-2.6.6-.3.2 4.5.3 1.2v-89c0-1.4.1-2.9 0-4.3 0-.3.2-1.3 0-1.5.9 1.1-.9 4-.1 1.3-.1.2.6-2.6.8-2.6-.1 0-1.9 4.7-.3 1.2 1.4-2.9-.4 1.6-.9.9-.1-.1 1.9-2 1.8-1.9 2.2-2.4-.9.9-1 .7.1.1 2.2-1.5 2.3-1.3.5.8-4.3 1.2-1.1.5.5-.1 2.4-.4 2.6-.6-.5.4-4.8.2-1.2.3h87c1.9 0 3.9.1 5.8 0 .5 0 1.7.2 2 0-1.4 1.1-3.9-1-1.3-.1.5.2 2.2.8 2.6.8-.6.1-4.1-2.1-1.2-.3 2.7 1.7-.8-.9-.9-.9.1-.1 1.6 1.6 1.9 1.8 2.9 2.6-1-.8-.7-1-.1 0 1.5 2.2 1.3 2.3-.3.2-1.4-5-.5-1.1.1.5.4 2.3.6 2.6-.2-.3-.1-4-.4-1.9v.9c-.1 1.6 0 3.3 0 4.9V589.6c0 .5-.2 1.3 0 1.5-.4-.4 1.3-4.8.1-1.3-.1.4-.2.9-.4 1.3-.6 1.7-.6 1.7 0 .1.7-.3.9-1.7-.2 0-2 3.3.8-.9.9-.9.1.1-1.6 1.6-1.8 1.9-2.1 2.4.7-1.5 1-.7.1.2-2.4 1.2-2.3 1.3-.2-.3 4.9-1.4 1.1-.5-.6.2-1.3.3-2 .5-2.6.7 5.3-.5.7-.3-10.4.3-20.5 9-20 20 .5 10.6 8.8 20.3 20 20 23.8-.7 42.3-19.1 42.9-42.9.1-4.8 0-9.6 0-14.4v-62.3c0-5.5.1-11 0-16.5-.4-19.9-14.4-39.1-34.8-42.3-6.6-1-13-.9-19.6-.9h-29.7c-17.1 0-34.2-.1-51.3 0-18.7.2-35 11.3-41.4 29-2.6 7.3-2.4 14.9-2.4 22.6v82.7c0 15.7 7 30.4 20.7 38.8 8.9 5.4 18.6 6.2 28.6 6.2H416.6c10.5 0 20.5-9.2 20-20-.5-10.9-8.8-20-20-20zm29 166.3h69.3c10.5 0 20.5-9.2 20-20s-8.8-20-20-20h-69.3c-10.5 0-20.5 9.2-20 20s8.8 20 20 20zm145.3 1h69.3c10.5 0 20.5-9.2 20-20s-8.8-20-20-20h-69.3c-10.5 0-20.5 9.2-20 20s8.8 20 20 20zm145.3 0h69.3c10.5 0 20.5-9.2 20-20s-8.8-20-20-20h-69.3c-10.5 0-20.5 9.2-20 20s8.8 20 20 20z"></path></svg>