<svg width="56" height="56" fill="#3d4f58" xmlns="http://www.w3.org/2000/svg"><path d="M39.874 1.4c-.984.207-1.607.911-1.47 1.66.09.496.231.675 1.099 1.4 1.064.889 1.722 1.733 2.381 3.053 1.17 2.346 1.635 3.786 2.127 6.58.471 2.675 1.034 4.607 1.77 6.07.756 1.502 1.689 2.582 2.626 3.042.471.23.656.267 1.34.268.688 0 .866-.036 1.349-.273.306-.15.726-.448.933-.663.707-.73 1.434-2.375 1.794-4.057.26-1.21.235-4.181-.045-5.475-.319-1.476-.71-2.579-1.418-3.998-1.883-3.777-4.949-6.472-8.447-7.426-.58-.158-1.068-.21-2.193-.234-.796-.017-1.626.007-1.846.053m2.381 1.407c2.332.26 4.439 1.389 6.381 3.418a14.129 14.129 0 0 1 3.238 5.442c.537 1.689.68 2.584.68 4.281.001 1.843-.304 3.225-1.031 4.679-.362.723-.586.985-1.049 1.222-.731.375-1.529.14-2.251-.664-1.273-1.416-2.012-3.407-2.772-7.472-.438-2.341-.691-3.288-1.273-4.753-1.155-2.907-2.272-4.551-3.98-5.856l-.263-.2.309-.051c.27-.044.538-.08.99-.132.066-.008.525.031 1.021.086m-6.292 1.374c-.957.342-1.384.771-2.013 2.026-.426.848-.773 1.961-.966 3.094-.21 1.228-.136 3.806.143 5.026.336 1.471.768 2.665 1.466 4.058 1.081 2.156 2.576 3.973 4.374 5.318 1.997 1.495 3.891 2.208 6.113 2.303 1.092.046 1.193.035 1.586-.168.466-.242.806-.683.895-1.162.108-.572-.029-.923-.609-1.562-1.74-1.92-2.726-4.327-3.506-8.554-.334-1.81-.378-2.003-.683-2.987a26.581 26.581 0 0 0-1.584-4.013c-.569-1.162-.683-1.326-1.461-2.108-1.04-1.045-1.619-1.358-2.602-1.409-.486-.025-.801.012-1.153.138m-17.497.295c-.42.229-.715.689-.789 1.229-.042.308.005.579.192 1.108.763 2.16.918 3.659.618 5.986-.418 3.243-.992 5.43-2.173 8.289-.949 2.295-1.765 4.753-2.096 6.313-.228 1.073-.256 1.407-.26 3.026-.004 1.631.018 1.897.211 2.566.276.957.541 1.402 1.181 1.988.683.624 1.342.875 2.43.927 1.007.048 1.625-.117 2.627-.702 4.197-2.451 7.093-7.12 8.032-12.947.227-1.407.225-4.821-.004-6.159-.644-3.76-2.081-6.737-4.352-9.011-1.079-1.08-1.921-1.677-3.256-2.31-1.074-.509-1.812-.603-2.361-.303m-6.803.224c-1.072.289-2.927 1.588-4.256 2.981-4.13 4.328-5.999 11.237-4.739 17.519.9 4.485 3.288 8.158 6.584 10.127.754.45.806.466 1.489.466.621 0 .754-.031 1.081-.258.763-.528.933-1.243.622-2.606-.221-.971-.219-3.62.006-4.882.386-2.176 1.203-4.824 2.259-7.327 1.173-2.779 1.745-4.983 2.188-8.426.188-1.462.192-1.608.059-2.193-.079-.345-.234-1.039-.344-1.543-.242-1.1-.801-2.273-1.343-2.813-.969-.966-2.381-1.375-3.606-1.045m26.023 1.006c.597.289 1.318 1.046 1.812 1.901.955 1.654 1.862 4.147 2.272 6.238.56 2.864.829 4.004 1.217 5.17.691 2.076 1.523 3.612 2.647 4.889.584.663.549.694-.68.613-2.863-.188-5.875-2.051-7.887-4.878-1.111-1.561-2.124-3.905-2.505-5.8-.204-1.014-.231-3.788-.045-4.646.361-1.665 1.063-3.138 1.656-3.475.464-.264.985-.268 1.513-.012M20.09 6.06c2.013.859 4.145 3.016 5.333 5.395 1.269 2.541 1.797 5.1 1.707 8.285-.051 1.823-.172 2.729-.59 4.387-1.05 4.172-3.716 7.981-6.833 9.766-.916.524-1.492.67-2.16.546-1.547-.285-2.147-1.393-2.149-3.966-.003-2.381.618-4.773 2.286-8.808 1.305-3.158 1.903-5.529 2.344-9.298.231-1.974.048-3.646-.612-5.595-.156-.458-.283-.868-.283-.91 0-.139.322-.073.957.198m-6.494.271c.398.203.876.692 1.09 1.114.193.383.502 1.397.618 2.028.056.308.146.73.199.938.075.292.053.714-.099 1.867-.374 2.83-.932 5.206-1.556 6.622-.594 1.346-1.617 4.048-1.956 5.161-1.134 3.73-1.416 6.904-.835 9.403.224.963-.134 1.137-1.117.545-3.945-2.377-6.414-7.766-6.174-13.476.232-5.524 2.72-10.642 6.523-13.417.596-.435 1.317-.858 1.647-.965.382-.124 1.247-.031 1.66.18M40.6 28.625c-3.413.365-6.89 2.134-9.622 4.893-3.084 3.116-4.846 7.111-4.844 10.985.001 2.321.751 4.842 1.611 5.411a1.862 1.862 0 0 0 1.842.09c.372-.199.478-.335.933-1.209.644-1.236.891-1.609 1.71-2.579 1.386-1.642 3.844-3.537 6.666-5.14 2.215-1.257 5.451-4.34 6.337-6.036.701-1.342.907-2.026.913-3.027.005-.772-.027-.955-.245-1.422-.301-.646-.99-1.356-1.583-1.634a4.714 4.714 0 0 0-1.027-.3c-.561-.091-1.984-.108-2.691-.032m3.033 1.635c.629.337 1.074 1.055 1.074 1.733 0 .516-.239 1.247-.721 2.213-.391.781-.54.96-2.113 2.526-1.832 1.824-2.539 2.391-4.12 3.304-1.412.816-3.034 1.913-4.125 2.791-1.894 1.524-3.674 3.645-4.455 5.31-.454.968-.682.766-1.236-1.097-.32-1.074-.399-3.07-.176-4.433.99-6.044 6.496-11.512 12.546-12.459.871-.136 2.998-.065 3.326.112m4.289 1.791c-.39.17-.764.639-.885 1.11-.428 1.667-1.076 2.881-2.19 4.108-2.141 2.357-3.843 3.785-6.267 5.254-3.794 2.301-5.909 4.278-7.02 6.564-.393.808-.429.939-.43 1.587-.001.858.195 1.469.674 2.102.737.972 1.59 1.393 3.114 1.536 2.507.236 5.378-.427 7.83-1.81 3.779-2.131 6.819-5.741 8.104-9.623.935-2.825.944-5.722.025-8.159-.249-.661-.971-1.926-1.297-2.273-.465-.496-1.087-.644-1.658-.396m.995 2.039c.856 1.579 1.14 2.727 1.138 4.597-.003 1.778-.278 3.045-1.054 4.863-1.422 3.328-4.28 6.317-7.673 8.026-.831.419-2.591 1.001-3.528 1.167-.888.158-2.885.159-3.515.002-.861-.214-1.549-.93-1.67-1.739-.247-1.65 2.439-4.59 6.398-7 1.271-.774 1.772-1.116 3.267-2.23.985-.733 3.405-3.095 4.235-4.133.659-.825 1.44-2.338 1.737-3.367.123-.423.251-.769.286-.769.034 0 .205.262.379.583" fill-rule="evenodd"/></svg>