<svg width="56" height="56" fill="#3d4f58" xmlns="http://www.w3.org/2000/svg"><path d="M15.353 14.345c-.788.07-2.43.422-3.25.697-4.116 1.378-6.968 4.624-7.655 8.713-.2 1.187-.126 9.623.094 10.675.413 1.986 1.593 3.683 3.36 4.835 4.109 2.678 10.862 3.723 17.671 2.733 1.621-.236 2.77-.518 5.134-1.259 4.493-1.41 5.777-1.676 8.073-1.674 1.501.001 1.784.027 2.66.247 1.951.488 2.714.581 4.807.584 1.615.002 2.065-.027 2.559-.167 1.242-.35 2.283-1.059 2.764-1.88.492-.84.494-.856.517-5.337.02-4.02.013-4.205-.17-4.672-.663-1.695-2.217-2.659-6.214-3.853-2.889-.863-8.039-3.012-16.182-6.752-3.555-1.632-6.693-2.521-10.094-2.859-.901-.089-3.222-.107-4.074-.031m5.693 1.746c1.659.29 3.529.767 4.947 1.262.565.198 2.54 1.052 4.389 1.9 4.177 1.914 7.75 3.47 10.545 4.592 2.087.838 2.834 1.101 5.46 1.915 2.242.696 3.561 1.469 4.039 2.368.279.526.278 1.616-.003 2.159-.587 1.133-1.847 1.635-4.101 1.631-1.415-.002-2.648-.164-4.395-.577-1.22-.289-1.368-.303-3.147-.304-1.574-.001-2.032.032-2.92.211-1.456.294-2.96.692-4.826 1.279-4.33 1.362-5.869 1.653-9.427 1.786-5.15.193-9.9-.874-12.992-2.919-1.923-1.271-2.836-3.146-2.836-5.821 0-2.529.978-4.899 2.756-6.678 1.542-1.541 3.694-2.566 6.258-2.98 1.365-.22 4.488-.132 6.253.176m-8.889 4.307c-1.53.411-2.472 1.527-2.327 2.754.285 2.405 4.077 3.893 6.618 2.597 1.139-.581 1.686-1.791 1.327-2.933-.565-1.797-3.398-3.016-5.618-2.418m2.734 1.62c.724.32 1.124.639 1.362 1.089l.22.415-.186.349c-.55 1.029-2.759 1.144-4.159.217-.521-.345-.873-.927-.79-1.305.089-.406.574-.787 1.215-.956.522-.137 1.838-.029 2.338.191m25.955 3.469c-.301.237-.345.808-.079 1.048.171.156 3.135 1.33 4.015 1.591.558.166.845.104 1.082-.234.194-.278.189-.571-.014-.811-.094-.11-.797-.427-1.657-.746a99.395 99.395 0 0 1-2.092-.797c-.724-.295-.934-.304-1.255-.051m-12.333 4.382c-2.147.701-4.148.953-7.823.984-3.127.026-3.143.029-3.277.561-.08.318.176.768.485.855.411.115 5.201.076 6.322-.052 2.152-.244 3.71-.562 4.968-1.013.748-.267.839-.341.92-.748.043-.213.004-.336-.163-.52-.325-.359-.51-.367-1.432-.067m-20.57 2.86c3.84 2.516 9.9 3.571 16.464 2.867 2.055-.221 3.435-.531 6.372-1.434 4.509-1.386 5.988-1.699 8.048-1.704 1.081-.002 1.438.038 2.52.286 2.317.532 2.983.614 4.946.612 2.039-.002 2.832-.146 3.797-.691l.497-.28v2.071c0 1.916-.015 2.102-.197 2.478-.738 1.525-3.696 1.96-7.69 1.131-2.678-.556-2.714-.561-4.247-.514-2.16.065-3.783.404-7.513 1.568-4.73 1.475-6.168 1.71-10.453 1.708-2.926-.002-4.044-.105-6.114-.566-4.059-.904-6.801-2.521-7.828-4.618-.56-1.144-.665-1.665-.665-3.295v-1.4l.575.591c.316.325.986.861 1.488 1.19" fill-rule="evenodd"/></svg>