<svg width="56" height="56" fill="#3d4f58" xmlns="http://www.w3.org/2000/svg"><path d="M36.575 4.492c-.178.178-.192.265-.139.863.15 1.676.174 3.174.062 3.8-.063.355-.145.645-.181.645-.093 0-.661-.61-1.125-1.208a6.042 6.042 0 0 1-1.08-2.159c-.085-.33-.22-.673-.301-.763-.209-.233-.807-.217-1.035.028-.198.212-.195.194-.494 2.871l-.212 1.895-.239-.058c-.922-.227-2.329-1.168-3.399-2.275-.713-.738-.958-.818-1.412-.461-.25.197-.256.223-.208.91a9.086 9.086 0 0 0 .953 3.422l.495.989-.34.139c-1.148.469-3.021 1.533-3.853 2.189-.187.147-.359.268-.382.268-.023 0-.256-.326-.519-.724-.601-.909-1.286-1.693-1.578-1.803-.326-.125-.844.114-.922.424-.034.134-.012.633.047 1.108.195 1.542.09 3.981-.17 3.981-.07 0-.682-.696-1.19-1.353-.393-.508-.843-1.423-.97-1.973-.151-.65-.266-.847-.569-.972-.353-.147-.775.022-.909.363-.054.137-.209 1.215-.343 2.395-.135 1.181-.258 2.159-.272 2.174-.015.016-.309-.085-.654-.223-.929-.372-1.882-1.036-2.783-1.939-.701-.703-.844-.805-1.128-.805-.243 0-.376.065-.527.257-.182.232-.196.324-.137.956.141 1.511.644 2.964 1.442 4.168.464.7.524.836.392.892-.085.037-.575.22-1.088.408C6.601 24.82 2.77 28.787 1.582 33.507c-.283 1.125-.356 3.617-.142 4.849.923 5.308 5.386 9.827 11.535 11.679 2.015.606 3.813.859 6.112.859 1.853 0 2.895-.105 4.563-.461 5.412-1.155 9.92-4.43 12.024-8.734.207-.425.424-.803.482-.841.057-.038.464-.069.903-.07 3.043-.005 7.035-1.171 9.698-2.831 4.124-2.571 6.613-6.228 7.102-10.434.326-2.801-.382-5.668-2.02-8.181-1.794-2.752-4.8-5.135-8.042-6.378-.321-.123-.584-.249-.584-.281 0-.108 1.075-.625 1.695-.815.57-.174 1.996-.36 2.779-.362.371-.001.753-.365.753-.717 0-.4-.992-1.509-1.784-1.995-1.507-.924-3.656-.805-5.654.313-.332.185-.615.322-.629.305a9.44 9.44 0 0 1-.232-.72 12.87 12.87 0 0 0-.437-1.21c-.295-.665-1.304-2.169-1.843-2.745-.346-.371-.469-.444-.751-.444a.74.74 0 0 0-.535.199m2.102 4.482c.126.378.275 1.022.332 1.432.118.859.294 1.111.775 1.111.216 0 .461-.115.819-.384.634-.477 1.745-1.071 2.424-1.296.764-.252 1.875-.23 2.473.049l.467.218-.607.118c-2.024.396-3.352 1.21-4.591 2.816-.876 1.134-1.355 1.574-2.199 2.016-.853.447-1.607.626-2.637.626-.969 0-1.622-.144-2.685-.592-1.929-.814-3.608-2.379-4.311-4.019-.267-.622-.244-.661.206-.353.911.625 2.45 1.262 3.332 1.379.376.05.474.027.688-.162.229-.202.26-.32.393-1.475.079-.69.156-1.268.171-1.283.016-.015.156.15.313.368.491.684 1.874 2.093 2.177 2.218.245.102.338.098.602-.028.626-.299 1.242-2.038 1.262-3.566l.007-.56.18.341c.1.187.284.649.409 1.026m4.283 5.263c4.118 1.584 7.313 4.497 8.698 7.931.574 1.424.74 2.309.74 3.965.001 2.005-.262 3.155-1.125 4.925-2.252 4.614-7.648 7.848-13.724 8.224-.529.033-.962.038-.962.012s.069-.383.153-.794c.231-1.128.207-3.367-.05-4.595-.73-3.491-2.998-6.654-6.415-8.946-.935-.627-2.759-1.562-3.652-1.873-.269-.093-.49-.198-.49-.233 0-.147.786-1.041 1.148-1.304 1.063-.776 2.308-1.175 3.939-1.264 1.181-.064 1.447-.201 1.447-.743 0-.651-1.355-1.895-2.592-2.379-.438-.172-.72-.21-1.562-.211-.879-.001-1.133.035-1.773.256a11.62 11.62 0 0 0-1.436.628c-.379.203-.697.358-.706.344a9.938 9.938 0 0 1-.166-.577l-.148-.55.289-.243c.925-.779 2.249-1.568 3.637-2.167l1.036-.447.52.447c1.109.95 2.374 1.665 3.861 2.181.824.286.92.299 2.306.298 1.342 0 1.501-.019 2.194-.26 1.398-.487 2.5-1.246 3.365-2.317.284-.351.537-.638.562-.638.026 0 .433.148.906.33m-20.541 2.488c-.087.087-.112.063-.112-.112 0-.174.025-.199.112-.112.087.087.087.137 0 .224m23.867 1.281c-.456.456-.39.615.748 1.781 2.257 2.314 3.204 5.16 2.664 8.007-.353 1.863-1.102 3.264-2.578 4.823-.601.635-.764.866-.764 1.083 0 .394.355.74.759.74.275 0 .414-.093.94-.63 4.417-4.505 4.345-10.855-.173-15.276-.931-.911-1.143-.981-1.596-.528m-26.828 1.58c.956.991 1.136 1.096 1.573.913.321-.134.77-.858.992-1.599.061-.205.13-.432.153-.504.033-.101.091-.085.257.071l.215.203.171-.189c.093-.103.201-.188.238-.188.038 0 .118.347.18.77.19 1.316.634 1.515 1.688.759.759-.543 2.137-1.21 2.793-1.35.277-.06.759-.088 1.072-.062.595.047 1.514.385 1.263.464-.077.024-.518.135-.98.246-1.732.418-2.901 1.182-4.002 2.618-1.423 1.857-2.649 2.582-4.546 2.69-1.094.062-1.932-.105-3.072-.612-1.483-.66-2.561-1.477-3.408-2.583-.477-.622-1.144-1.872-1.049-1.967.024-.024.264.103.532.284.703.473 1.52.843 2.466 1.117 1.01.293 1.105.295 1.416.027.222-.191.26-.321.374-1.283.071-.589.132-1.176.136-1.304.008-.218.031-.205.353.186.189.231.723.813 1.185 1.293m-4.442 4.58c.798.542 2.317 1.256 3.231 1.518.989.284 2.852.3 3.78.033 1.228-.354 2.271-.943 3.139-1.775.231-.221.396-.339.366-.263-.196.511-.184.53.481.767.868.31 2.643 1.21 3.434 1.742 2.403 1.617 4.319 3.871 5.222 6.145.558 1.406.732 2.314.735 3.834.003 1.512-.131 2.403-.53 3.546-.667 1.91-1.57 3.322-3.106 4.857-4.51 4.511-12.231 6.093-18.888 3.872-4.11-1.371-7.358-4.026-8.967-7.329-.808-1.659-1.124-2.989-1.132-4.76-.015-3.095 1.061-5.612 3.457-8.092 1.895-1.962 4.036-3.292 6.735-4.184.501-.165.783-.306.765-.38a10.117 10.117 0 0 1-.086-.404l-.055-.286.412.378c.227.208.68.559 1.007.781m-7.331 4.198c-1.268 1.064-2.542 2.892-3.162 4.536-.427 1.131-.618 2.212-.617 3.5.001 2.856 1.002 5.25 3.097 7.412.697.719.85.832 1.117.832.231 0 .366-.069.528-.272.349-.436.286-.624-.481-1.445-1.277-1.365-1.897-2.353-2.369-3.774a8.523 8.523 0 0 1 .474-6.533c.504-1.012 1.079-1.798 2.055-2.809.932-.965 1.002-1.176.547-1.632-.15-.15-.357-.272-.459-.272-.102 0-.431.205-.73.457" fill-rule="evenodd" /></svg>